<?xml version="1.0" encoding="UTF-8"?>
<svg version="1.1" xmlns="http://www.w3.org/2000/svg" width="500" height="500">
<path d="M0 0 C4.48404564 -0.024759 8.96805481 -0.04288799 13.45214844 -0.05493164 C14.97689507 -0.05995365 16.50163691 -0.0667725 18.02636719 -0.07543945 C20.22071519 -0.08759849 22.4149994 -0.09324968 24.609375 -0.09765625 C26.5888916 -0.10551147 26.5888916 -0.10551147 28.60839844 -0.11352539 C32 0 32 0 33.92364502 0.49900818 C36.22249444 1.05368441 38.24953567 1.1270327 40.61328125 1.12939453 C41.52102295 1.13254669 42.42876465 1.13569885 43.36401367 1.13894653 C44.8235144 1.13591019 44.8235144 1.13591019 46.3125 1.1328125 C47.82130737 1.13424759 47.82130737 1.13424759 49.3605957 1.13571167 C51.48551496 1.13639162 53.61043631 1.1345502 55.73535156 1.13037109 C58.98767767 1.12502027 62.23986568 1.13032235 65.4921875 1.13671875 C67.55729197 1.13605794 69.62239636 1.13477671 71.6875 1.1328125 C72.66050049 1.13483673 73.63350098 1.13686096 74.63598633 1.13894653 C75.54372803 1.13579437 76.45146973 1.13264221 77.38671875 1.12939453 C78.58107544 1.12820114 78.58107544 1.12820114 79.79956055 1.12698364 C81.9708903 1.0749058 81.9708903 1.0749058 83.89489746 0.5 C86.72683446 -0.17263635 89.38444673 -0.1273358 92.29492188 -0.12939453 C94.22934647 -0.13406235 94.22934647 -0.13406235 96.20285034 -0.13882446 C97.62481716 -0.13701687 99.04678373 -0.13500649 100.46875 -0.1328125 C101.9598086 -0.13382896 103.45086701 -0.13516889 104.94192505 -0.1368103 C108.96091394 -0.13951974 112.97986445 -0.13502765 116.99884796 -0.12857056 C119.49457413 -0.12500775 121.99029455 -0.12338283 124.48602295 -0.12231445 C156.33151342 -0.10539961 188.16184086 0.32090822 220 1 C217.9755521 7.32632649 215.30322598 13.27003894 212.5625 19.3125 C212.07201172 20.42173828 211.58152344 21.53097656 211.07617188 22.67382812 C210.35977539 24.25260742 210.35977539 24.25260742 209.62890625 25.86328125 C209.19650635 26.82532471 208.76410645 27.78736816 208.31860352 28.77856445 C207 31 207 31 204 32 C201.7161483 32.08378628 199.429899 32.10729915 197.14453125 32.09765625 C196.15207649 32.09553383 196.15207649 32.09553383 195.13957214 32.09336853 C193.03050172 32.08777996 190.92153823 32.07522965 188.8125 32.0625 C187.38086091 32.05748352 185.94922015 32.05292087 184.51757812 32.04882812 C181.01168412 32.0378143 177.5058525 32.02055755 174 32 C178.86601236 43.22984416 183.884997 54.38159874 189 65.5 C190.3558337 68.44715431 191.71032077 71.39491704 193.0625 74.34375 C193.55682777 75.42157745 193.55682777 75.42157745 194.06114197 76.5211792 C196.6361974 82.15682589 199.13331624 87.82445233 201.57214355 93.52038574 C204.02198951 99.19623289 206.82584213 104.64884446 209.71484375 110.109375 C211 113 211 113 211 117 C130.15 117 49.3 117 -34 117 C-34.33 116.34 -34.66 115.68 -35 115 C-34.07945191 112.51694266 -33.09519646 110.15540081 -32 107.75 C-31.67966797 107.03199219 -31.35933594 106.31398438 -31.02929688 105.57421875 C-28.43442414 99.81573406 -25.61535859 94.19088294 -22.75 88.5625 C-20.55238055 84.0887747 -18.58662809 79.5340542 -16.62280273 74.9543457 C-14.74776672 70.61581208 -12.72226749 66.39439404 -10.5625 62.1875 C-7.3876112 55.95136496 -4.61337307 49.59853425 -2.01586914 43.10058594 C-0.45691525 39.24282253 1.14074974 35.62204471 3.34375 32.0859375 C7.25629986 25.82403203 7.25629986 25.82403203 7.51123047 18.65478516 C5.81083818 13.74694453 3.48303955 9.22080534 0.84545898 4.75488281 C0 3 0 3 0 0 Z " fill="#A55398" transform="translate(150,218)"/>
<path d="M0 0 C11.0833227 -0.03100338 22.16664072 -0.05111745 33.25 -0.0625 C34.4913332 -0.06378403 34.4913332 -0.06378403 35.75774384 -0.06509399 C68.51505434 -0.09498196 101.25006313 0.30146046 134 1 C131.9755521 7.32632649 129.30322598 13.27003894 126.5625 19.3125 C126.07201172 20.42173828 125.58152344 21.53097656 125.07617188 22.67382812 C124.35977539 24.25260742 124.35977539 24.25260742 123.62890625 25.86328125 C123.19650635 26.82532471 122.76410645 27.78736816 122.31860352 28.77856445 C121 31 121 31 118 32 C115.7161483 32.08378628 113.429899 32.10729915 111.14453125 32.09765625 C110.15207649 32.09553383 110.15207649 32.09553383 109.13957214 32.09336853 C107.03050172 32.08777996 104.92153823 32.07522965 102.8125 32.0625 C101.38086091 32.05748352 99.94922015 32.05292087 98.51757812 32.04882812 C95.01168412 32.0378143 91.5058525 32.02055755 88 32 C92.86601236 43.22984416 97.884997 54.38159874 103 65.5 C104.3558337 68.44715431 105.71033685 71.39490967 107.0625 74.34375 C107.55567215 75.41919823 107.55567215 75.41919823 108.05880737 76.51637268 C110.66393747 82.21846077 113.19009709 87.95308822 115.66552734 93.71264648 C117.58848451 98.16138336 119.70629518 102.45341349 122.0546875 106.69140625 C123 109 123 109 124 116 C43.81 116 -36.38 116 -119 116 C-119 115.67 -119 115.34 -119 115 C-103.655 114.505 -103.655 114.505 -88 114 C-85.36 108.39 -82.72 102.78 -80 97 C-63.70838122 96.82846125 -47.41672103 96.66154731 -31.125 96.5 C-29.92753773 96.48812275 -28.73007545 96.4762455 -27.49632645 96.46400833 C9.33722576 96.1003538 46.16460417 95.84019884 83 96 C78.73749433 86.23692951 74.45520424 76.48328902 70.125 66.75 C69.61541748 65.60337891 69.10583496 64.45675781 68.58081055 63.27539062 C64.97582233 55.17135457 61.34650893 47.07852848 57.67822266 39.00292969 C57.33710449 38.24915039 56.99598633 37.49537109 56.64453125 36.71875 C56.34909424 36.06841797 56.05365723 35.41808594 55.74926758 34.74804688 C55.08477492 33.19778053 54.53337381 31.60012144 54 30 C45.09 30 36.18 30 27 30 C27.33 31.32 27.66 32.64 28 34 C24.04 34 20.08 34 16 34 C20.01785714 23.82142857 20.01785714 23.82142857 22 20 C22.66 20 23.32 20 24 20 C23.67 19.01 23.34 18.02 23 17 C23.94873324 15.26610821 24.90613753 13.53521751 25.94140625 11.8515625 C27.3700915 9.35268129 28.19405339 6.7536509 29 4 C29.66 4 30.32 4 31 4 C31 3.01 31 2.02 31 1 C20.77 1 10.54 1 0 1 C0 0.67 0 0.34 0 0 Z " fill="#A3539A" transform="translate(236,218)"/>
<path d="M0 0 C1.19109375 0.04769531 2.3821875 0.09539062 3.609375 0.14453125 C6.40648578 0.25731797 9.20329148 0.377644 12 0.5 C14.64 6.11 17.28 11.72 20 17.5 C30.23 17.5 40.46 17.5 51 17.5 C51 18.16 51 18.82 51 19.5 C-29.19 19.5 -109.38 19.5 -192 19.5 C-192 19.17 -192 18.84 -192 18.5 C-176.655 18.005 -176.655 18.005 -161 17.5 C-158.36 11.89 -155.72 6.28 -153 0.5 C-139.86237938 0.36792125 -126.72474671 0.23724139 -113.58708954 0.10884857 C-107.48301855 0.04914195 -101.37895416 -0.01111565 -95.27490234 -0.07275391 C-18.86509628 -0.84300551 -18.86509628 -0.84300551 0 0 Z " fill="#B6B5B6" transform="translate(309,314.5)"/>
<path d="M0 0 C1.4211458 -0.02156937 2.8421591 -0.05566153 4.26269531 -0.10253906 C6.31204466 -0.16957051 8.35864453 -0.19699672 10.40893555 -0.21606445 C11.63845947 -0.24112061 12.8679834 -0.26617676 14.13476562 -0.29199219 C17.3269043 0.4050293 17.3269043 0.4050293 19.65454102 3.22143555 C21.48239695 6.70103284 23.12653036 10.21804687 24.6394043 13.8425293 C25.25378311 15.27937236 25.86970292 16.71555735 26.48706055 18.15112305 C26.79530762 18.86896973 27.10355469 19.58681641 27.42114258 20.32641602 C29.0149834 23.98408737 30.72241797 27.58766828 32.41992188 31.19799805 C38.89834777 44.99592732 45.31690709 58.83113919 51.30932617 72.84814453 C52.46804612 75.84608324 52.46804612 75.84608324 54.3269043 78.4050293 C54.3269043 80.3850293 54.3269043 82.3650293 54.3269043 84.4050293 C44.4269043 84.4050293 34.5269043 84.4050293 24.3269043 84.4050293 C23.0069043 81.9919043 21.6869043 79.5787793 20.3269043 77.0925293 C19.90924805 76.33673584 19.4915918 75.58094238 19.0612793 74.80224609 C16.3269043 69.73836263 16.3269043 69.73836263 16.3269043 66.4050293 C7.0869043 66.4050293 -2.1530957 66.4050293 -11.6730957 66.4050293 C-11.6730957 66.0750293 -11.6730957 65.7450293 -11.6730957 65.4050293 C-3.0930957 65.4050293 5.4869043 65.4050293 14.3269043 65.4050293 C10.58477332 56.81513774 6.81226705 48.24045592 2.99682617 39.68286133 C-2.67096664 26.96973693 -8.23480362 14.21797504 -13.6730957 1.4050293 C-11.03125008 -1.23681633 -3.77396767 0.04309872 0 0 Z " fill="#B0589D" transform="translate(304.673095703125,248.594970703125)"/>
<path d="M0 0 C8.91 0 17.82 0 27 0 C33.12297498 11.89270141 38.62577866 23.9916529 44.01171875 36.234375 C45.90143938 40.52969353 47.81597511 44.81146251 49.76953125 49.078125 C50.40097046 50.46016113 50.40097046 50.46016113 51.04516602 51.87011719 C51.82903015 53.58111708 52.61706241 55.29021561 53.40991211 56.99707031 C53.75417236 57.75084961 54.09843262 58.50462891 54.453125 59.28125 C54.75379883 59.93158203 55.05447266 60.58191406 55.36425781 61.25195312 C56 63 56 63 56 66 C47.42 66 38.84 66 30 66 C24.55460578 55.2479093 19.37683398 44.42942084 14.4375 33.4375 C13.49815085 31.35366208 12.55785103 29.27025761 11.61685181 27.18716431 C10.9998691 25.8212722 10.38362487 24.45504625 9.76815796 23.08847046 C8.19907702 19.61318925 6.60698157 16.1508176 4.97705078 12.70361328 C4.65132584 12.01380875 4.32560089 11.32400421 3.99000549 10.61329651 C3.36697613 9.29811187 2.74061056 7.98450097 2.11045837 6.67271423 C0 2.21916633 0 2.21916633 0 0 Z " fill="#5F5E5F" transform="translate(263,248)"/>
<path d="M0 0 C17.16 0 34.32 0 52 0 C47.49477441 11.26306398 47.49477441 11.26306398 45.45703125 15.53515625 C45.02326172 16.44587891 44.58949219 17.35660156 44.14257812 18.29492188 C43.70365234 19.20822266 43.26472656 20.12152344 42.8125 21.0625 C42.36197266 22.01060547 41.91144531 22.95871094 41.44726562 23.93554688 C38.13316664 30.86683336 38.13316664 30.86683336 37 32 C35.29227642 32.08713831 33.58101351 32.10700007 31.87109375 32.09765625 C30.31938477 32.09282227 30.31938477 32.09282227 28.73632812 32.08789062 C27.64771484 32.07951172 26.55910156 32.07113281 25.4375 32.0625 C23.7987793 32.05573242 23.7987793 32.05573242 22.12695312 32.04882812 C19.41791505 32.03699826 16.70898401 32.02051543 14 32 C13.68248779 31.33468262 13.36497559 30.66936523 13.0378418 29.98388672 C11.58829496 26.94732006 10.13790504 23.91115683 8.6875 20.875 C8.18798828 19.82828125 7.68847656 18.7815625 7.17382812 17.703125 C6.68720703 16.68476563 6.20058594 15.66640625 5.69921875 14.6171875 C5.2304834 13.63459961 4.76174805 12.65201172 4.27880859 11.63964844 C3.26799589 9.55318281 2.22348855 7.49666342 1.14453125 5.4453125 C0 3 0 3 0 0 Z " fill="#454445" transform="translate(183,219)"/>
<path d="M0 0 C13.53 0 27.06 0 41 0 C49 17 49 17 49 20 C29.86 20 10.72 20 -9 20 C-6.03 13.4 -3.06 6.8 0 0 Z " fill="#AA96A3" transform="translate(238,283)"/>
<path d="M0 0 C8.91 0 17.82 0 27 0 C28.85676541 3.93032348 30.70990487 7.86196042 32.55419922 11.7980957 C33.18266751 13.13663258 33.81318926 14.47420731 34.44580078 15.81079102 C35.35470368 17.73204338 36.2561678 19.65663378 37.15625 21.58203125 C37.70087891 22.73936768 38.24550781 23.8967041 38.80664062 25.08911133 C40 28 40 28 40 31 C31.42 31 22.84 31 14 31 C0 3.24137931 0 3.24137931 0 0 Z " fill="#898989" transform="translate(279,283)"/>
<path d="M0 0 C4.29 0 8.58 0 13 0 C14.99624403 4.25301611 16.99000839 8.50718204 18.98144531 12.76245117 C19.65979423 14.21101553 20.33882945 15.6592587 21.01855469 17.10717773 C21.99332789 19.18389936 22.96565752 21.26174934 23.9375 23.33984375 C24.24373291 23.99089584 24.54996582 24.64194794 24.86547852 25.31272888 C27 29.88612829 27 29.88612829 27 31 C13.47 31 -0.06 31 -14 31 C-11.64875 25.555 -11.64875 25.555 -9.25 20 C-8.7643457 18.87207031 -8.27869141 17.74414062 -7.77832031 16.58203125 C-5.34329996 10.96305833 -2.80145836 5.4458256 0 0 Z " fill="#A2569F" transform="translate(252,252)"/>
<path d="M0 0 C0.66 0 1.32 0 2 0 C4.28834291 4.90685232 6.56669973 9.8181697 8.8359375 14.73388672 C9.60925112 16.40539893 10.38527557 18.07565978 11.1640625 19.74462891 C12.28320417 22.14421711 13.39251021 24.54814108 14.5 26.953125 C14.84998047 27.69806213 15.19996094 28.44299927 15.56054688 29.21051025 C17.18887424 32.7709406 18 35.02129262 18 39 C6.45 39 -5.1 39 -17 39 C-11.375 25.5 -11.375 25.5 -8.88671875 19.921875 C-8.0987793 18.15263672 -8.0987793 18.15263672 -7.29492188 16.34765625 C-6.76447266 15.16042969 -6.23402344 13.97320312 -5.6875 12.75 C-5.13202897 11.5039653 -4.57668978 10.25787182 -4.02148438 9.01171875 C-2.68227673 6.00723551 -1.34176238 3.00334298 0 0 Z " fill="#898788" transform="translate(174,275)"/>
<path d="M0 0 C10.56 0 21.12 0 32 0 C33.32 2.578125 34.64 5.15625 36 7.8125 C36.41765625 8.62050049 36.8353125 9.42850098 37.265625 10.26098633 C37.75289063 11.22427856 37.75289063 11.22427856 38.25 12.20703125 C38.58515625 12.8616333 38.9203125 13.51623535 39.265625 14.19067383 C40 16 40 16 40 19 C29.44 19 18.88 19 8 19 C1 5 1 5 0 0 Z " fill="#D9C6D0" transform="translate(261,314)"/>
<path d="M0 0 C4.29 0 8.58 0 13 0 C14.33801 2.78951193 15.67057094 5.58140245 17 8.375 C17.3815625 9.1690625 17.763125 9.963125 18.15625 10.78125 C18.5171875 11.54179687 18.878125 12.30234375 19.25 13.0859375 C19.75273437 14.1385376 19.75273437 14.1385376 20.265625 15.21240234 C21 17 21 17 21 19 C11.43 19 1.86 19 -8 19 C-5.66060444 11.98181333 -3.35251164 6.43319801 0 0 Z " fill="#776D7A" transform="translate(252,252)"/>
<path d="M0 0 C10.56 0 21.12 0 32 0 C37 10 37 10 37 11 C20.665 11.495 20.665 11.495 4 12 C0 2 0 2 0 0 Z " fill="#D3549B" transform="translate(256,303)"/>
<path d="M0 0 C8.91 0 17.82 0 27 0 C31 9 31 9 31 11 C19.45 11 7.9 11 -4 11 C-3 6 -3 6 0 0 Z " fill="#020001" transform="translate(229,303)"/>
<path d="M0 0 C1.12591553 0.00523682 2.25183105 0.01047363 3.41186523 0.01586914 C4.62680664 0.0190918 5.84174805 0.02231445 7.09350586 0.02563477 C8.37290039 0.03401367 9.65229492 0.04239258 10.97045898 0.05102539 C12.2537207 0.05553711 13.53698242 0.06004883 14.85913086 0.06469727 C18.04211921 0.07652994 21.22501661 0.09301471 24.40795898 0.11352539 C27.40795898 6.61352539 27.40795898 6.61352539 27.40795898 11.11352539 C15.85795898 11.11352539 4.30795898 11.11352539 -7.59204102 11.11352539 C-3.20273989 0.14027259 -3.20273989 0.14027259 0 0 Z " fill="#010001" transform="translate(164.592041015625,302.886474609375)"/>
<path d="M0 0 C2.64 0 5.28 0 8 0 C9.31746333 2.58090767 10.62909617 5.16450458 11.9375 7.75 C12.31068359 8.47960937 12.68386719 9.20921875 13.06835938 9.9609375 C13.60493164 11.02441406 13.60493164 11.02441406 14.15234375 12.109375 C14.48226318 12.75874023 14.81218262 13.40810547 15.15209961 14.07714844 C16 16 16 16 17 20 C8.42 20 -0.16 20 -9 20 C-6.03 13.4 -3.06 6.8 0 0 Z " fill="#888888" transform="translate(238,283)"/>
<path d="M0 0 C8.91 0 17.82 0 27 0 C28.65 3.96 30.3 7.92 32 12 C23.09 12 14.18 12 5 12 C0 3 0 3 0 0 Z " fill="#040304" transform="translate(274,271)"/>
<path d="M0 0 C10.56 0 21.12 0 32 0 C29.30174399 8.09476802 29.30174399 8.09476802 27 11 C24.5480957 11.56762695 24.5480957 11.56762695 21.67578125 11.48828125 C20.13374023 11.46411133 20.13374023 11.46411133 18.56054688 11.43945312 C17.48869141 11.39755859 16.41683594 11.35566406 15.3125 11.3125 C14.22904297 11.28994141 13.14558594 11.26738281 12.02929688 11.24414062 C9.35148095 11.1851579 6.67642973 11.10290307 4 11 C3.32591692 9.73308493 2.66099503 8.46129251 2 7.1875 C1.62875 6.47980469 1.2575 5.77210938 0.875 5.04296875 C0 3 0 3 0 0 Z " fill="#000000" transform="translate(193,240)"/>
<path d="M0 0 C8.91 0 17.82 0 27 0 C31 8 31 8 31 11 C22.42 11 13.84 11 5 11 C0 1 0 1 0 0 Z " fill="#010001" transform="translate(288,303)"/>
<path d="M0 0 C7.59 0 15.18 0 23 0 C21.23958338 5.28124985 19.24673631 10.23699243 17 15.3125 C16.64421875 16.13556641 16.2884375 16.95863281 15.921875 17.80664062 C15.57640625 18.58845703 15.2309375 19.37027344 14.875 20.17578125 C14.56304687 20.88645752 14.25109375 21.59713379 13.9296875 22.3293457 C13 24 13 24 11 25 C9.1636275 21.0222289 7.33141138 17.0425574 5.5 13.0625 C4.71302734 11.35803711 4.71302734 11.35803711 3.91015625 9.61914062 C3.41386719 8.53955078 2.91757813 7.45996094 2.40625 6.34765625 C1.94541016 5.34742432 1.48457031 4.34719238 1.00976562 3.31665039 C0 1 0 1 0 0 Z " fill="#5B595B" transform="translate(197,251)"/>
<path d="M0 0 C8.91 0 17.82 0 27 0 C27.33 0.99 27.66 1.98 28 3 C19.09 3 10.18 3 1 3 C0.67 2.01 0.34 1.02 0 0 Z " fill="#180B13" transform="translate(263,248)"/>
<path d="M0 0 C0.66 0 1.32 0 2 0 C5 5.75 5 5.75 5 8 C2.36 8 -0.28 8 -3 8 C-2.01 5.36 -1.02 2.72 0 0 Z " fill="#0E070D" transform="translate(174,275)"/>
<path d="M0 0 C2.15377564 2.62198774 3.40072174 4.64404172 4 8 C1.36 8 -1.28 8 -4 8 C-2.68 5.36 -1.36 2.72 0 0 Z " fill="#0C050B" transform="translate(242,275)"/>
<path d="M0 0 C3.3 0 6.6 0 10 0 C10.33 0.99 10.66 1.98 11 3 C7.04 3 3.08 3 -1 3 C-0.67 2.01 -0.34 1.02 0 0 Z " fill="#795599" transform="translate(253,249)"/>
</svg>
